# xmcd
#
# Track frame offsets: 
#        150
#        12882
#        32759
#        48829
#        65513
#        78081
#        93164
#        108044
#        120160
#        135828
#        150608
#        169974
#
# Disc length: 2562 seconds
#
# Revision: 0
# Processed by: cddbd v1.5.2PL0 Copyright (c) Steve Scherf et al.
# Submitted via: ExactAudioCopy v0.99pb3
#
DISCID=7c0a000c
DTITLE=Jason Roberts - That's My Home
DYEAR=2014
DGENRE=Country
TTITLE0=I Hear You Talkin'
TTITLE1=That's My Home
TTITLE2=My Last Dime
TTITLE3=How It Lies, How It Lies, How It Lies
TTITLE4=Everybody's Somebody In Luckenback
TTITLE5=Avalon
TTITLE6=Lest We Forget
TTITLE7=Dark Town Strutter's Ball
TTITLE8=A Texas Honky Tonk
TTITLE9=Jesse Polka
TTITLE10=Texas Sandman
TTITLE11=Bye Bye Blackbird
EXTD=
EXTT0=
EXTT1=
EXTT2=
EXTT3=
EXTT4=
EXTT5=
EXTT6=
EXTT7=
EXTT8=
EXTT9=
EXTT10=
EXTT11=
PLAYORDER=
